<svg width="1912" height="369" viewBox="0 0 1912 369" fill="none" xmlns="http://www.w3.org/2000/svg">
<path d="M959.794 221.381C957.651 221.381 955.825 221.005 954.315 220.256C952.804 219.507 951.588 218.532 950.667 217.332C949.746 216.132 949.071 214.831 948.643 213.427C948.214 212.024 948 210.669 948 209.362V208.655C948 207.241 948.22 205.827 948.658 204.413C949.098 203 949.778 201.714 950.7 200.557C951.62 199.4 952.821 198.469 954.299 197.761C955.777 197.054 957.544 196.701 959.601 196.701C961.7 196.701 963.5 197.065 965 197.794C966.499 198.522 967.688 199.54 968.566 200.846C969.445 202.153 969.98 203.696 970.173 205.474H966.96C966.789 204.146 966.36 203.047 965.674 202.18C964.989 201.312 964.126 200.665 963.087 200.236C962.049 199.807 960.886 199.594 959.601 199.594C958.208 199.594 956.987 199.834 955.938 200.316C954.887 200.798 954.014 201.473 953.319 202.341C952.622 203.208 952.097 204.21 951.744 205.345C951.39 206.481 951.214 207.713 951.214 209.041C951.214 210.305 951.39 211.505 951.744 212.64C952.097 213.776 952.633 214.782 953.351 215.66C954.068 216.54 954.962 217.23 956.034 217.733C957.104 218.238 958.358 218.489 959.794 218.489C961.807 218.489 963.5 217.986 964.871 216.978C966.242 215.971 967.077 214.515 967.378 212.608H970.591C970.377 214.214 969.836 215.682 968.968 217.01C968.101 218.339 966.901 219.4 965.369 220.192C963.837 220.984 961.979 221.381 959.794 221.381Z" fill="#E8D4A1"/>
<path d="M991.637 214.376L992.697 211.547H1002.82L1003.88 214.376H991.637ZM986.591 221.381L995.043 197.922H1000.38L1009.09 221.381H1005.84L997.967 199.978L999.51 200.75H995.718L997.357 199.978L989.74 221.381H986.591Z" fill="#E8D4A1"/>
<path d="M1027.59 213.218V210.455H1032.83C1033.94 210.455 1034.87 210.235 1035.59 209.796C1036.32 209.357 1036.87 208.762 1037.25 208.013C1037.62 207.262 1037.81 206.427 1037.81 205.506C1037.81 204.563 1037.62 203.717 1037.25 202.967C1036.87 202.217 1036.32 201.629 1035.59 201.2C1034.87 200.772 1033.94 200.557 1032.83 200.557H1027.59V197.794H1032.25C1034.18 197.794 1035.79 198.099 1037.09 198.709C1038.38 199.32 1039.36 200.182 1040.03 201.296C1040.69 202.411 1041.02 203.728 1041.02 205.249V205.763C1041.02 207.262 1040.69 208.575 1040.03 209.7C1039.36 210.824 1038.38 211.692 1037.09 212.303C1035.79 212.913 1034.18 213.218 1032.25 213.218H1027.59ZM1025.09 197.794H1028.23V221.381H1025.09V197.794Z" fill="#E8D4A1"/>
<path d="M1057.02 197.922H1060.17V221.381H1057.02V197.922Z" fill="#E8D4A1"/>
<path d="M1083.31 200.107H1086.46V221.381H1083.31V200.107ZM1076.17 197.922H1093.59V200.75H1076.17V197.922Z" fill="#E8D4A1"/>
<path d="M1114.64 214.376L1115.7 211.547H1125.82L1126.88 214.376H1114.64ZM1109.59 221.381L1118.04 197.922H1123.38L1132.09 221.381H1128.84L1120.97 199.978L1122.51 200.75H1118.72L1120.36 199.978L1112.74 221.381H1109.59Z" fill="#E8D4A1"/>
<path d="M1150.59 218.553H1161.32V221.381H1150.59V218.553ZM1148.09 197.922H1151.23V221.381H1148.09V197.922Z" fill="#E8D4A1"/>
<path d="M322.707 366.128V363.436C340.321 361.724 343.257 359.767 343.257 346.312V214.202C343.257 200.746 340.321 198.788 322.707 197.076V194.384H392.677V197.076C375.063 198.788 372.125 200.746 372.125 214.202V345.088C372.125 358.299 378.976 361.724 395.124 361.724H408.089C426.683 361.724 443.073 349.982 455.552 314.996H457.999L449.679 366.128H322.707Z" fill="#F7F7F7"/>
<path d="M477.811 200.99C477.811 191.449 485.149 183.621 495.18 183.621C505.455 183.621 512.795 191.449 512.795 200.99C512.795 210.288 505.455 218.116 495.18 218.116C485.149 218.116 477.811 210.288 477.811 200.99ZM509.615 352.184C509.615 361.725 514.507 362.704 526.74 363.437V366.129H465.333V363.437C477.565 362.704 482.215 361.725 482.215 352.184V258.482L466.067 249.185V248.208L508.636 235.485H509.615V352.184Z" fill="#F7F7F7"/>
<path d="M633.403 305.455C633.403 274.874 621.906 251.387 596.217 251.387C586.675 251.387 577.623 255.303 571.507 261.663V332.367C571.507 353.651 581.294 364.906 595.727 364.906C618.725 364.906 633.403 338.727 633.403 305.455ZM527.961 188.268V187.29L570.53 174.568H571.507V259.462C580.315 246.739 594.75 235.484 613.831 235.484C643.434 235.484 661.049 258.972 661.049 294.446C661.049 335.792 632.915 368.575 594.994 368.575C577.869 368.575 557.074 364.171 544.106 353.162V197.564L527.961 188.268Z" fill="#F7F7F7"/>
<path d="M700.432 282.458H755.724C755.724 258.483 748.628 239.4 730.769 239.4C713.644 239.4 702.633 258.972 700.432 282.458ZM732.237 368.575C697.741 368.575 675.723 341.174 675.723 305.455C675.723 265.822 701.656 235.484 733.949 235.484C764.531 235.484 780.921 257.015 780.921 284.659V286.618H700.188V290.532C700.188 327.228 717.803 349.003 743.736 349.003C760.127 349.003 773.093 341.663 781.656 328.452L782.635 328.942C777.008 351.694 758.171 368.575 732.237 368.575Z" fill="#F7F7F7"/>
<path d="M868.011 235.485C872.415 235.485 876.086 236.954 877.798 238.666V261.664H873.883C858.715 261.664 845.015 263.376 834.494 275.12V351.938C834.494 361.48 840.611 361.969 856.759 363.437V366.128H790.213V363.437C802.446 362.704 807.094 361.725 807.094 352.182V258.482L790.947 249.185V248.208L834.494 235.485H835.474L834.494 272.917C844.526 249.185 853.333 235.485 868.011 235.485Z" fill="#F7F7F7"/>
<path d="M926.233 240.378H960.239V248.208H926.233V328.697C926.233 345.333 933.327 352.673 946.294 352.673C953.145 352.673 959.75 350.961 965.621 346.557L966.355 347.534C959.994 357.566 948.006 368.574 931.614 368.574C913.022 368.574 899.077 358.056 899.077 331.877V248.208H883.174V246.494C898.342 238.91 915.711 224.232 925.009 208.573H926.233V240.378Z" fill="#F7F7F7"/>
<path d="M1042.68 344.844V292.734L1017.48 303.254C1005.74 308.147 998.398 315.731 998.398 329.675C998.398 344.11 1006.96 353.895 1020.42 353.895C1028 353.895 1035.83 351.694 1042.68 344.844ZM1070.08 341.663C1070.08 350.715 1074.24 354.63 1081.33 354.63C1084.76 354.63 1087.94 353.895 1090.63 352.427L1091.12 353.407C1085 362.704 1075.71 368.086 1065.43 368.086C1052.95 368.086 1044.64 359.767 1042.92 347.046C1034.85 357.076 1021.39 368.086 1004.51 368.086C986.41 368.086 972.465 355.854 972.465 337.75C972.465 319.155 987.633 308.88 1007.94 301.786L1042.68 289.552V268.024C1042.68 251.387 1037.05 239.155 1022.37 239.155C1009.65 239.155 1003.78 249.43 1003.78 263.375C1003.78 268.268 1004.27 273.65 1005.98 278.299L989.591 280.5C983.963 279.034 979.315 273.162 979.315 265.822C979.315 247.228 1001.33 235.484 1026.04 235.484C1054.91 235.484 1070.08 247.228 1070.08 274.14V341.663Z" fill="#F7F7F7"/>
<path d="M1121.94 296.403C1121.94 326.984 1134.42 352.428 1160.35 352.428C1170.14 352.428 1177.72 349.003 1183.84 342.643V271.694C1183.84 250.41 1174.05 239.155 1159.13 239.155C1135.89 239.155 1121.94 263.375 1121.94 296.403ZM1183.1 368.575L1183.84 344.844C1175.28 357.566 1162.8 368.575 1143.47 368.575C1114.6 368.575 1094.3 342.886 1094.3 308.636C1094.3 266.067 1121.21 235.484 1159.13 235.484C1167.94 235.484 1177.97 238.422 1183.84 243.07V197.564L1167.69 188.268V187.29L1210.26 174.568H1211.24V345.578C1211.24 354.384 1212.22 356.342 1228.36 357.566V359.767L1184.08 368.575H1183.1Z" fill="#F7F7F7"/>
<path d="M254.133 221.511V239.544C232.441 231.471 174.558 211.657 153.805 203.794C118.601 190.454 83.5351 176.737 48.2093 163.731C40.1891 160.778 34.946 156.682 32.1356 148.457C25.3372 128.554 17.0396 109.122 12.7848 86.0861C46.27 103.013 77.7558 118.89 109.206 134.837L245.3 206.845C250.734 209.719 254.133 215.364 254.133 221.511Z" fill="url(#paint0_linear_146_102)"/>
<path d="M254.133 286.556C219.457 277.836 154.406 262.309 120.004 253.944C90.719 246.825 73.8344 232.896 61.5741 208.284C56.7377 198.576 49.8232 187.634 45.9392 176.561C59.3533 181.303 70.4625 185.342 81.7105 189.147L254.133 250.965V286.556Z" fill="url(#paint1_linear_146_102)"/>
<path d="M254.132 296.485C254.132 296.485 223.466 289.729 219.608 288.771C180.408 279.042 141.18 269.423 101.96 259.774L96.8861 258.501C113.928 280.619 136.331 306.2 161.784 316.565C185.501 326.224 227.332 334.262 254.132 338.849V296.485Z" fill="url(#paint2_linear_146_102)"/>
<path d="M254.132 347.4C235.28 342.772 204.32 338.78 185.153 335.428C207.18 350.275 226.541 358.262 254.132 365.015V347.4Z" fill="url(#paint3_linear_146_102)"/>
<path d="M68.8017 44.5304C46.4484 30.0026 24.0405 15.5562 0 0C1.85666 23.8044 5.56063 45.0066 9.91684 66.1207C10.6704 69.7766 13.6808 70.9958 16.4018 72.4416C85.2275 108.973 154.005 145.594 223.019 181.766C227.236 183.976 244.545 192.879 255.996 198.764C262.41 202.061 266.412 208.684 266.353 215.895L266.086 248.849L266.937 364.505C266.952 366.448 268.456 368.057 270.392 368.218C280.286 369.037 283.791 368.556 289.422 368.601C291.439 368.617 293.173 367.02 293.186 365.004C293.186 364.993 293.186 364.982 293.186 364.972V190.239" fill="url(#paint4_linear_146_102)"/>
<rect x="1303.36" y="6.8504" width="2" height="355" fill="white"/>
<path d="M1384.89 42.0834H1381.16L1389.53 18.8107H1393.59L1401.97 42.0834H1398.24L1391.66 23.038H1391.48L1384.89 42.0834ZM1385.51 32.9698H1397.6V35.9243H1385.51V32.9698ZM1408.84 18.8107V42.0834H1405.33V18.8107H1408.84ZM1441.75 26.3789H1438.2C1438.07 25.6213 1437.81 24.9546 1437.44 24.3789C1437.07 23.8031 1436.62 23.3145 1436.08 22.913C1435.54 22.5115 1434.94 22.2084 1434.27 22.0039C1433.61 21.7993 1432.91 21.6971 1432.17 21.6971C1430.83 21.6971 1429.63 22.0342 1428.57 22.7084C1427.51 23.3827 1426.68 24.3713 1426.07 25.6743C1425.46 26.9774 1425.16 28.5683 1425.16 30.4471C1425.16 32.341 1425.46 33.9395 1426.07 35.2425C1426.68 36.5456 1427.52 37.5304 1428.58 38.1971C1429.64 38.8637 1430.83 39.1971 1432.16 39.1971C1432.89 39.1971 1433.59 39.0986 1434.25 38.9016C1434.92 38.6971 1435.52 38.3978 1436.06 38.0039C1436.59 37.61 1437.05 37.1289 1437.42 36.5607C1437.8 35.9849 1438.06 35.3259 1438.2 34.5834L1441.75 34.5948C1441.56 35.7387 1441.19 36.7918 1440.65 37.7539C1440.11 38.7084 1439.42 39.5342 1438.57 40.2312C1437.73 40.9206 1436.76 41.4546 1435.68 41.8334C1434.6 42.2122 1433.42 42.4016 1432.14 42.4016C1430.12 42.4016 1428.33 41.9243 1426.75 40.9698C1425.17 40.0077 1423.93 38.6327 1423.02 36.8448C1422.12 35.0569 1421.67 32.9243 1421.67 30.4471C1421.67 27.9622 1422.12 25.8296 1423.03 24.0493C1423.94 22.2615 1425.19 20.8903 1426.76 19.9357C1428.34 18.9736 1430.13 18.4925 1432.14 18.4925C1433.37 18.4925 1434.52 18.6706 1435.59 19.0266C1436.67 19.3751 1437.63 19.8903 1438.49 20.5721C1439.34 21.2463 1440.05 22.0721 1440.61 23.0493C1441.17 24.019 1441.55 25.1289 1441.75 26.3789ZM1466.17 30.4471C1466.17 32.9319 1465.71 35.0683 1464.8 36.8562C1463.89 38.6365 1462.65 40.0077 1461.06 40.9698C1459.49 41.9243 1457.7 42.4016 1455.69 42.4016C1453.67 42.4016 1451.88 41.9243 1450.29 40.9698C1448.72 40.0077 1447.47 38.6327 1446.56 36.8448C1445.66 35.0569 1445.2 32.9243 1445.2 30.4471C1445.2 27.9622 1445.66 25.8296 1446.56 24.0493C1447.47 22.2615 1448.72 20.8903 1450.29 19.9357C1451.88 18.9736 1453.67 18.4925 1455.69 18.4925C1457.7 18.4925 1459.49 18.9736 1461.06 19.9357C1462.65 20.8903 1463.89 22.2615 1464.8 24.0493C1465.71 25.8296 1466.17 27.9622 1466.17 30.4471ZM1462.69 30.4471C1462.69 28.5531 1462.38 26.9584 1461.77 25.663C1461.16 24.3599 1460.33 23.3751 1459.27 22.7084C1458.22 22.0342 1457.02 21.6971 1455.69 21.6971C1454.35 21.6971 1453.15 22.0342 1452.1 22.7084C1451.05 23.3751 1450.21 24.3599 1449.6 25.663C1448.99 26.9584 1448.69 28.5531 1448.69 30.4471C1448.69 32.341 1448.99 33.9395 1449.6 35.2425C1450.21 36.538 1451.05 37.5228 1452.1 38.1971C1453.15 38.8637 1454.35 39.1971 1455.69 39.1971C1457.02 39.1971 1458.22 38.8637 1459.27 38.1971C1460.33 37.5228 1461.16 36.538 1461.77 35.2425C1462.38 33.9395 1462.69 32.341 1462.69 30.4471ZM1489.33 18.8107V42.0834H1486.1L1474.27 25.0153H1474.06V42.0834H1470.55V18.8107H1473.8L1485.64 35.9016H1485.85V18.8107H1489.33ZM1493.3 21.8334V18.8107H1511.31V21.8334H1504.05V42.0834H1500.55V21.8334H1493.3ZM1515.3 42.0834V18.8107H1523.59C1525.39 18.8107 1526.89 19.1213 1528.08 19.7425C1529.28 20.3637 1530.17 21.2236 1530.76 22.3221C1531.35 23.413 1531.65 24.6743 1531.65 26.1062C1531.65 27.5304 1531.35 28.7842 1530.75 29.8675C1530.16 30.9433 1529.26 31.7804 1528.07 32.3789C1526.88 32.9774 1525.38 33.2766 1523.58 33.2766H1517.3V30.2539H1523.26C1524.4 30.2539 1525.32 30.091 1526.03 29.7653C1526.75 29.4395 1527.28 28.966 1527.61 28.3448C1527.95 27.7236 1528.11 26.9774 1528.11 26.1062C1528.11 25.2274 1527.94 24.466 1527.6 23.8221C1527.27 23.1781 1526.74 22.6857 1526.02 22.3448C1525.31 21.9963 1524.37 21.8221 1523.22 21.8221H1518.81V42.0834H1515.3ZM1526.78 31.5834L1532.53 42.0834H1528.53L1522.9 31.5834H1526.78ZM1537.89 42.0834H1534.16L1542.53 18.8107H1546.59L1554.97 42.0834H1551.24L1544.66 23.038H1544.48L1537.89 42.0834ZM1538.51 32.9698H1550.6V35.9243H1538.51V32.9698ZM1554.43 21.8334V18.8107H1572.44V21.8334H1565.18V42.0834H1561.68V21.8334H1554.43ZM1575.64 42.0834H1571.91L1580.28 18.8107H1584.34L1592.72 42.0834H1588.99L1582.41 23.038H1582.23L1575.64 42.0834ZM1576.26 32.9698H1588.35V35.9243H1576.26V32.9698ZM1603.61 42.0834H1596.08V18.8107H1603.85C1606.13 18.8107 1608.09 19.2766 1609.72 20.2084C1611.36 21.1327 1612.61 22.4622 1613.49 24.1971C1614.36 25.9243 1614.8 27.9963 1614.8 30.413C1614.8 32.8372 1614.36 34.9206 1613.47 36.663C1612.6 38.4054 1611.32 39.7463 1609.66 40.6857C1607.99 41.6175 1605.97 42.0834 1603.61 42.0834ZM1599.59 39.0153H1603.42C1605.19 39.0153 1606.66 38.6819 1607.84 38.0153C1609.01 37.341 1609.89 36.3675 1610.47 35.0948C1611.06 33.8145 1611.35 32.2539 1611.35 30.413C1611.35 28.5872 1611.06 27.038 1610.47 25.7653C1609.9 24.4925 1609.04 23.5266 1607.89 22.8675C1606.75 22.2084 1605.33 21.8789 1603.63 21.8789H1599.59V39.0153ZM1639.39 30.4471C1639.39 32.9319 1638.93 35.0683 1638.02 36.8562C1637.11 38.6365 1635.87 40.0077 1634.28 40.9698C1632.71 41.9243 1630.92 42.4016 1628.91 42.4016C1626.89 42.4016 1625.09 41.9243 1623.51 40.9698C1621.94 40.0077 1620.69 38.6327 1619.78 36.8448C1618.87 35.0569 1618.42 32.9243 1618.42 30.4471C1618.42 27.9622 1618.87 25.8296 1619.78 24.0493C1620.69 22.2615 1621.94 20.8903 1623.51 19.9357C1625.09 18.9736 1626.89 18.4925 1628.91 18.4925C1630.92 18.4925 1632.71 18.9736 1634.28 19.9357C1635.87 20.8903 1637.11 22.2615 1638.02 24.0493C1638.93 25.8296 1639.39 27.9622 1639.39 30.4471ZM1635.91 30.4471C1635.91 28.5531 1635.6 26.9584 1634.99 25.663C1634.38 24.3599 1633.55 23.3751 1632.49 22.7084C1631.44 22.0342 1630.24 21.6971 1628.91 21.6971C1627.57 21.6971 1626.37 22.0342 1625.32 22.7084C1624.26 23.3751 1623.43 24.3599 1622.82 25.663C1622.21 26.9584 1621.91 28.5531 1621.91 30.4471C1621.91 32.341 1622.21 33.9395 1622.82 35.2425C1623.43 36.538 1624.26 37.5228 1625.32 38.1971C1626.37 38.8637 1627.57 39.1971 1628.91 39.1971C1630.24 39.1971 1631.44 38.8637 1632.49 38.1971C1633.55 37.5228 1634.38 36.538 1634.99 35.2425C1635.6 33.9395 1635.91 32.341 1635.91 30.4471Z" fill="#E8D4A1"/>
<path d="M1388.83 82.5969C1384.17 77.9396 1380.36 73.7452 1380.36 73.2823C1380.36 72.5314 1389.58 72.4355 1459.96 72.4355C1511.9 72.4355 1539.95 72.6331 1540.69 73C1541.31 73.3105 1541.94 74.2645 1542.09 75.117C1542.25 75.9694 1542.76 81.2421 1543.24 86.8309C1543.73 92.4197 1544.75 104.484 1545.52 113.646C1546.29 122.802 1546.98 131.163 1547.05 132.213C1547.14 133.517 1546.91 134.211 1546.33 134.381C1545.8 134.539 1538.3 127.448 1525.73 114.876C1514.86 104.015 1503.43 92.6906 1500.32 89.7099C1497.22 86.7292 1493.79 83.8502 1492.7 83.3026C1490.96 82.4332 1488.85 82.3147 1458.86 82.3147L1455.73 85.4421L1455.59 130.593C1455.51 155.426 1455.64 175.744 1455.87 175.749C1456.1 175.749 1461.12 174.214 1467.02 172.328C1472.92 170.448 1482.57 167.383 1488.47 165.52C1494.37 163.657 1500.21 161.783 1501.45 161.359C1502.7 160.93 1506.7 159.677 1510.35 158.565C1513.99 157.459 1517.23 156.674 1517.54 156.832C1517.9 157.007 1518.11 162.477 1518.11 185.905L1487.76 185.973C1471.08 186.007 1457.04 186.069 1456.57 186.114C1455.83 186.176 1455.7 191.787 1455.56 232.196C1455.45 262.906 1455.59 278.911 1455.99 280.322C1456.39 281.79 1457.09 282.699 1458.27 283.286C1459.64 283.969 1462.69 284.132 1474.22 284.144C1483.67 284.149 1489.14 283.929 1490.45 283.489C1491.54 283.122 1493.06 282.343 1493.83 281.75C1494.61 281.163 1508.28 267.739 1524.22 251.921C1540.15 236.103 1553.55 223.164 1553.99 223.164C1554.43 223.164 1554.8 223.61 1554.8 224.152C1554.8 224.694 1553.92 236.701 1552.84 250.825C1551.77 264.95 1550.75 278.668 1550.57 281.31C1550.4 283.952 1550.1 287.378 1549.9 288.931C1549.67 290.794 1549.11 292.183 1546.95 294.294H1463.66C1384.7 294.294 1380.36 294.243 1380.39 293.306C1380.4 292.764 1384.19 288.507 1388.8 283.85C1393.81 278.798 1397.56 274.53 1398.1 273.265C1398.9 271.357 1398.99 262.37 1398.99 183.082C1398.99 106.059 1398.89 94.7681 1398.15 93.0406C1397.68 91.9455 1393.53 87.2994 1388.83 82.5969Z" fill="url(#paint5_linear_146_102)"/>
<path d="M1824.68 81.7501C1820.31 77.4033 1816.74 73.5307 1816.74 73.1411C1816.74 72.5822 1826.55 72.4355 1863.88 72.4355C1901.22 72.4355 1911.01 72.5822 1911 73.1411C1910.99 73.5307 1907.07 77.7815 1902.29 82.5969C1896.98 87.9373 1893.25 92.1713 1892.71 93.464C1891.92 95.3552 1891.82 104.851 1891.82 183.082C1891.82 259.609 1891.93 270.832 1892.67 272.56C1893.14 273.649 1897.46 278.73 1902.27 283.85C1907.08 288.97 1910.89 293.419 1910.73 293.729C1910.55 294.096 1894.27 294.294 1863.6 294.294C1822.32 294.294 1816.74 294.192 1816.74 293.447C1816.74 292.984 1820.51 288.728 1825.12 283.991C1829.74 279.255 1833.99 274.496 1834.58 273.406C1835.62 271.493 1835.65 268.76 1835.65 94.7342L1834.14 92.1939C1833.3 90.7938 1829.05 86.097 1824.68 81.7501Z" fill="url(#paint6_linear_146_102)"/>
<path fill-rule="evenodd" clip-rule="evenodd" d="M1664.6 68.7773C1667.4 68.2975 1672.48 67.6765 1675.89 67.3943C1679.31 67.112 1685.53 66.9991 1689.72 67.1515C1693.91 67.2983 1699.63 67.6652 1702.42 67.9757C1705.22 68.2806 1710.05 69.037 1713.15 69.6637C1716.26 70.2846 1722.35 71.9274 1726.7 73.3105C1731.05 74.6936 1738.16 77.5557 1742.51 79.6727C1746.85 81.7897 1752.7 85.0526 1755.49 86.9212C1758.28 88.7898 1762.86 92.2221 1765.65 94.5423C1768.45 96.8681 1772.76 100.933 1775.25 103.586C1777.73 106.239 1781.72 111.173 1784.11 114.555C1786.49 117.936 1789.9 123.497 1791.69 126.912C1793.48 130.328 1795.88 135.532 1797.03 138.485C1798.17 141.432 1799.77 146.258 1800.58 149.211C1801.39 152.158 1802.56 157.622 1803.2 161.348C1803.83 165.074 1804.51 171.933 1804.69 176.59C1804.9 181.711 1804.77 187.847 1804.36 192.115C1803.98 195.993 1803.09 202.096 1802.36 205.663C1801.63 209.231 1800.03 215.204 1798.78 218.93C1797.54 222.656 1795.26 228.374 1793.72 231.632C1792.18 234.889 1790.06 238.965 1789.01 240.687C1787.96 242.403 1785.33 246.332 1783.15 249.414C1780.98 252.496 1776.66 257.662 1773.55 260.897C1770.45 264.126 1766.01 268.348 1763.68 270.268C1761.35 272.193 1757.92 274.795 1756.05 276.06C1754.19 277.324 1751.21 279.277 1749.42 280.401C1747.64 281.519 1744.21 283.421 1741.8 284.624C1739.4 285.82 1735.01 287.768 1732.06 288.942C1729.11 290.116 1724.16 291.81 1721.05 292.708C1717.95 293.599 1713 294.819 1710.05 295.423C1707.09 296.021 1701.89 296.772 1698.47 297.094C1695.06 297.416 1688.96 297.67 1684.92 297.653C1678.95 297.636 1677.43 297.794 1676.74 298.522C1675.98 299.324 1676.29 299.804 1679.84 303.213C1682.02 305.302 1684.62 307.707 1687.46 310.101H1742.79C1795.11 310.101 1798.11 310.157 1798.09 311.088C1798.08 311.63 1793.31 316.903 1787.49 322.802C1781.67 328.702 1773.36 337.147 1761.14 349.617L1740.25 349.612C1724.63 349.606 1718.65 349.414 1716.54 348.85C1714.99 348.437 1712.57 347.517 1711.17 346.817C1709.44 345.942 1700.76 337.706 1683.8 320.855C1670.13 307.284 1658.06 295.66 1656.98 295.033C1655.9 294.401 1651.7 292.787 1647.67 291.437C1643.63 290.088 1636.52 287.068 1631.86 284.725C1627.2 282.377 1621.13 278.939 1618.36 277.076C1615.6 275.213 1610.64 271.374 1607.35 268.546C1604.07 265.712 1599.74 261.523 1597.76 259.231C1595.76 256.934 1592.42 252.773 1590.32 249.979C1588.23 247.184 1585.19 242.612 1583.58 239.817C1581.96 237.023 1579.62 232.45 1578.38 229.656C1577.13 226.861 1575.38 222.419 1574.47 219.777C1573.56 217.135 1572.22 212.438 1571.48 209.333C1570.75 206.228 1569.81 201.655 1569.39 199.171C1568.91 196.247 1568.65 189.879 1568.66 181.107C1568.68 170.827 1568.92 166.197 1569.67 161.913C1570.21 158.808 1571.17 154.235 1571.79 151.751C1572.41 149.267 1573.68 144.949 1574.62 142.154C1575.56 139.36 1577.95 133.771 1579.93 129.735C1581.91 125.698 1584.97 120.234 1586.73 117.597C1588.48 114.956 1591.14 111.275 1592.63 109.412C1594.13 107.549 1598.1 103.332 1601.46 100.041C1604.83 96.7439 1609.74 92.4592 1612.38 90.5172C1615.02 88.5696 1619.59 85.5607 1622.54 83.8219C1625.5 82.0832 1630.58 79.4807 1633.83 78.0412C1637.09 76.596 1641.66 74.7557 1644 73.9484C1646.32 73.1411 1650.77 71.8427 1653.88 71.0637C1656.98 70.2903 1661.81 69.2572 1664.6 68.7773ZM1681.82 76.7315C1680.74 76.8614 1678.2 77.2339 1676.17 77.567C1674.15 77.8944 1670.73 78.792 1668.55 79.5541C1666.38 80.3162 1662.95 81.9138 1660.93 83.105C1658.91 84.3018 1655.76 86.6446 1653.92 88.3099C1652.07 89.9809 1649.06 93.3794 1647.21 95.8633C1645.37 98.3472 1642.62 102.858 1641.11 105.884C1639.59 108.909 1637.36 114.374 1636.14 118.021C1634.93 121.668 1633.29 127.832 1632.5 131.711C1631.71 135.589 1630.68 141.691 1630.22 145.259C1629.76 148.827 1629.08 155.816 1628.71 160.784C1628.3 166.463 1628.17 176.421 1628.35 187.599C1628.57 200.272 1628.98 208.136 1629.8 214.978C1630.43 220.256 1631.6 227.753 1632.4 231.632C1633.2 235.51 1634.64 241.228 1635.6 244.333C1636.56 247.438 1638.41 252.389 1639.7 255.342C1641 258.294 1643.54 262.991 1645.36 265.785C1647.17 268.58 1650.49 272.644 1652.73 274.818C1654.97 276.991 1658.56 279.803 1660.7 281.061C1662.85 282.32 1666.13 283.912 1667.99 284.595C1669.85 285.284 1673.15 286.215 1675.33 286.673C1677.64 287.153 1682.33 287.503 1686.62 287.503C1690.96 287.503 1695.57 287.158 1697.91 286.661C1700.08 286.199 1703.64 285.132 1705.81 284.29C1707.99 283.455 1711.54 281.586 1713.72 280.152C1715.89 278.719 1719.51 275.597 1721.76 273.214C1724.01 270.838 1726.78 267.428 1727.92 265.644C1729.06 263.86 1731.07 260.112 1732.4 257.317C1733.72 254.523 1735.72 249.442 1736.84 246.027C1737.96 242.612 1739.62 236.136 1740.51 231.632C1741.42 227.127 1742.56 220.268 1743.05 216.389C1743.53 212.505 1744.23 203.236 1744.6 195.784C1745.12 185.256 1745.11 179.086 1744.58 168.122C1744.2 160.36 1743.52 151.085 1743.06 147.517C1742.61 143.95 1741.85 138.869 1741.37 136.227C1740.89 133.59 1739.88 128.888 1739.14 125.783C1738.39 122.678 1736.66 117.219 1735.29 113.646C1733.91 110.072 1731.72 105.246 1730.41 102.92C1729.09 100.588 1727.06 97.4157 1725.89 95.8633C1724.72 94.3108 1722.65 91.889 1721.29 90.4833C1719.91 89.0777 1717.4 86.8704 1715.69 85.5776C1713.99 84.2849 1710.68 82.3372 1708.35 81.2534C1706.03 80.1695 1701.96 78.7638 1699.32 78.1315C1696.68 77.4936 1692.11 76.867 1689.16 76.7372C1686.21 76.6073 1682.9 76.6017 1681.82 76.7315Z" fill="url(#paint7_linear_146_102)"/>
<defs>
<linearGradient id="paint0_linear_146_102" x1="292.986" y1="98.7113" x2="5.94055" y2="105.985" gradientUnits="userSpaceOnUse">
<stop stop-color="#E3C26D"/>
<stop offset="0.5" stop-color="#FFE192"/>
<stop offset="1" stop-color="#E3C26D"/>
</linearGradient>
<linearGradient id="paint1_linear_146_102" x1="292.986" y1="98.7113" x2="5.94055" y2="105.985" gradientUnits="userSpaceOnUse">
<stop stop-color="#E3C26D"/>
<stop offset="0.5" stop-color="#FFE192"/>
<stop offset="1" stop-color="#E3C26D"/>
</linearGradient>
<linearGradient id="paint2_linear_146_102" x1="292.986" y1="98.7113" x2="5.94055" y2="105.985" gradientUnits="userSpaceOnUse">
<stop stop-color="#E3C26D"/>
<stop offset="0.5" stop-color="#FFE192"/>
<stop offset="1" stop-color="#E3C26D"/>
</linearGradient>
<linearGradient id="paint3_linear_146_102" x1="292.986" y1="98.7113" x2="5.94055" y2="105.985" gradientUnits="userSpaceOnUse">
<stop stop-color="#E3C26D"/>
<stop offset="0.5" stop-color="#FFE192"/>
<stop offset="1" stop-color="#E3C26D"/>
</linearGradient>
<linearGradient id="paint4_linear_146_102" x1="292.986" y1="98.7113" x2="5.94055" y2="105.985" gradientUnits="userSpaceOnUse">
<stop stop-color="#E3C26D"/>
<stop offset="0.5" stop-color="#FFE192"/>
<stop offset="1" stop-color="#E3C26D"/>
</linearGradient>
<linearGradient id="paint5_linear_146_102" x1="1910.64" y1="142.725" x2="1392.64" y2="173.725" gradientUnits="userSpaceOnUse">
<stop stop-color="#E3C26D"/>
<stop offset="0.5" stop-color="#FFE192"/>
<stop offset="1" stop-color="#E3C26D"/>
</linearGradient>
<linearGradient id="paint6_linear_146_102" x1="1910.64" y1="142.725" x2="1392.64" y2="173.725" gradientUnits="userSpaceOnUse">
<stop stop-color="#E3C26D"/>
<stop offset="0.5" stop-color="#FFE192"/>
<stop offset="1" stop-color="#E3C26D"/>
</linearGradient>
<linearGradient id="paint7_linear_146_102" x1="1910.64" y1="142.725" x2="1392.64" y2="173.725" gradientUnits="userSpaceOnUse">
<stop stop-color="#E3C26D"/>
<stop offset="0.5" stop-color="#FFE192"/>
<stop offset="1" stop-color="#E3C26D"/>
</linearGradient>
</defs>
</svg>
